<?xml version="1.0" standalone="no"?>
<!DOCTYPE svg PUBLIC "-//W3C//DTD SVG 20010904//EN"
 "http://www.w3.org/TR/2001/REC-SVG-20010904/DTD/svg10.dtd">
<svg version="1.0" xmlns="http://www.w3.org/2000/svg"
 width="260.000000pt" height="260.000000pt" viewBox="0 0 260.000000 260.000000"
 preserveAspectRatio="xMidYMid meet">
<metadata>
Created by potrace 1.14, written by Peter Selinger 2001-2017
</metadata>
<g transform="translate(0.000000,260.000000) scale(0.100000,-0.100000)"
fill="#000000" stroke="none">
<path d="M512 2449 c-223 -33 -410 -211 -457 -434 -22 -103 -22 -1327 0 -1430
33 -158 141 -300 283 -373 135 -69 101 -67 972 -67 734 0 789 1 845 18 193 60
340 209 390 397 22 84 22 1399 0 1485 -47 178 -194 328 -385 391 -51 17 -111
19 -820 20 -431 1 -793 -2 -828 -7z m1269 -860 c117 -55 183 -159 183 -289 0
-130 -66 -234 -183 -289 l-56 -26 -415 0 -415 0 -56 26 c-118 55 -184 159
-183 289 1 147 77 253 217 302 47 16 87 18 452 15 l400 -2 56 -26z"/>
<path d="M910 1453 c-23 -8 -70 -55 -86 -85 -52 -99 32 -228 149 -228 163 0
222 214 83 299 -32 20 -109 27 -146 14z m24 -76 c8 -12 7 -21 -6 -33 -22 -22
-48 -11 -48 20 0 37 34 45 54 13z"/>
<path d="M1614 1450 c-28 -11 -82 -75 -90 -106 -27 -106 51 -204 163 -204 91
0 153 68 153 167 0 89 -68 154 -162 152 -23 0 -52 -4 -64 -9z m26 -65 c15 -18
7 -43 -16 -52 -24 -9 -46 24 -33 48 12 23 32 24 49 4z"/>
</g>
</svg>
